<svg id="Camada_1" data-name="Camada 1" xmlns="http://www.w3.org/2000/svg" viewBox="0 0 1080 1080">
  <defs>
    <style>
      .cls-1{fill:#401580;}.cls-2{fill:#f29f05;}.cls-3{fill:#f2f2f2;}
      @media (prefers-color-scheme: dark) {
        .cls-1{fill:#f2f2f2;}.cls-2{fill:#f29f05;}.cls-3{fill:#401580;}
      }
    </style>
  </defs>
  <title>BeyondCo_favicon</title>
  <rect class="cls-1" width="1080" height="1080" rx="170.56" ry="170.56"/>
  <path class="cls-2" d="M761.19,788.84c0-43.65,38.09-82.65,86.37-82.65,45.5,0,82.66,39,82.66,82.65,0,47.35-37.16,86.36-82.66,86.36A86.21,86.21,0,0,1,761.19,788.84Z"/>
  <path class="cls-3" d="M715.15,622.75c0,148.11-93.16,252.45-221.72,252.45-67.08,0-122.95-28.88-161.17-79.18v68h-136V212.87h136V449.48c38.22-49.37,94.09-78.25,161.17-78.25C622,371.23,715.15,475.56,715.15,622.75Zm-132.28,0c0-80.11-53.1-136.94-128.56-136.94-66.14,0-114.59,48.45-122,118.3v37.27c7.46,70.8,55.91,119.24,122.05,119.24C529.77,760.62,582.87,703.79,582.87,622.75Z"/>
</svg>